<!DOCTYPE svg PUBLIC "-//W3C//DTD SVG 1.1//EN" "http://www.w3.org/Graphics/SVG/1.1/DTD/svg11.dtd">
<!-- Uploaded to: SVG Repo, www.svgrepo.com, Transformed by: SVG Repo Mixer Tools -->
<svg fill="#000000" height="800px" width="800px" version="1.1" id="Layer_1" xmlns="http://www.w3.org/2000/svg" xmlns:xlink="http://www.w3.org/1999/xlink" viewBox="0 0 510.677 510.677" xml:space="preserve" transform="rotate(0)matrix(-1, 0, 0, 1, 0, 0)">
<g id="SVGRepo_bgCarrier" stroke-width="0"/>
<g id="SVGRepo_tracerCarrier" stroke-linecap="round" stroke-linejoin="round"/>
<g id="SVGRepo_iconCarrier"> <g> <g> <path d="M445.617,175.382H130.361c-0.68,0-1.304,0.656-1.772,1.288c-11.656,15.836-20.316,33.272-25.848,51.708 c-14.516-0.304-23.844-8.784-28.44-26.104c-12.34-46.488-51.62-46.892-52.536-46.892h-0.004c-0.984,0-1.924,0.328-2.652,0.992 l-17.796,16.1c-1.224,1.108-1.64,2.852-1.044,4.396c0.592,1.544,2.08,2.552,3.736,2.552c11.112,0,17.752,6.104,17.752,16.336 c0,140.256,90.54,173.076,103.116,176.944c30.628,45.084,82.32,74.916,140.824,74.916c72.04,0,133.72-44.236,158.484-108.236 h20.208c37.5,0,66.288-30.8,66.288-68.296v-27.772C510.677,206.234,482.549,175.382,445.617,175.382z M444.385,299.382h-10.004 c0.912-8,1.428-14.46,1.428-21.816c0-21.544-4-42.184-11.688-62.184h20.26c15.44,0,26.292,12.492,26.292,27.928v27.776h0.004 C470.677,286.526,459.825,299.382,444.385,299.382z"/> </g> </g> <g> <g> <path d="M395.177,158.754c-0.044-0.324-0.072-0.648-0.192-0.952c-0.104-0.264-0.284-0.472-0.44-0.708 c-0.124-0.188-0.752-0.4-0.912-0.568c-31.436-33.212-74.956-52.524-118.956-55.06v-6.02c4-3.264,8.372-8.764,8.372-14.648 c0-9.78-7.684-17.74-17.464-17.74c-9.78,0-18.268,7.956-18.268,17.74c0,5.916,3.364,11.44,7.364,14.704v5.912 c-44,2.38-86.832,21.732-118.432,55.116c-0.156,0.168,0.104,0.38-0.02,0.568c-0.156,0.236-0.172,0.444-0.272,0.708 c-0.124,0.308-0.068,0.628-0.112,0.952c-0.024,0.18-0.068,0.34-0.068,0.528c0,0.02,0.036,0.036,0.036,0.06 c-0.008,0.004,0.02,0.036,0.024,0.036h259.428c0,0,0.004-0.032,0.008-0.04c0-0.024,0.008-0.04,0.008-0.056 C395.281,159.094,395.197,158.934,395.177,158.754z"/> </g> </g> </g>
</svg>